<svg width="25" height="32" viewBox="0 0 25 32" fill="none" xmlns="http://www.w3.org/2000/svg">
<path d="M13.392 15.625C15.8576 15.625 17.8563 13.8761 17.8563 11.7188C17.8563 9.56139 15.8576 7.8125 13.392 7.8125C10.9265 7.8125 8.92773 9.56139 8.92773 11.7188C8.92773 13.8761 10.9265 15.625 13.392 15.625Z" fill="#75B1CE"/>
<path d="M12.5 0C5.58929 0 0 4.89062 0 10.9375C0 19.1406 12.5 31.25 12.5 31.25C12.5 31.25 25 19.1406 25 10.9375C25 4.89062 19.4107 0 12.5 0ZM3.57143 10.9375C3.57143 6.625 7.57143 3.125 12.5 3.125C17.4286 3.125 21.4286 6.625 21.4286 10.9375C21.4286 15.4375 16.2857 22.1719 12.5 26.375C8.78571 22.2031 3.57143 15.3906 3.57143 10.9375Z" fill="#75B1CE"/>
</svg>
