<svg width="25" height="27" viewBox="0 0 25 27" fill="none" xmlns="http://www.w3.org/2000/svg">
<path fill-rule="evenodd" clip-rule="evenodd" d="M15 5.66802V2.83401H10V5.66802H15ZM2.5 8.50202V24.0891H22.5V8.50202H2.5ZM22.5 5.66802C23.8875 5.66802 25 6.92915 25 8.50202V24.0891C25 25.6619 23.8875 26.9231 22.5 26.9231H2.5C1.1125 26.9231 0 25.6619 0 24.0891L0.0125 8.50202C0.0125 6.92915 1.1125 5.66802 2.5 5.66802H7.5V2.83401C7.5 1.26113 8.6125 0 10 0H15C16.3875 0 17.5 1.26113 17.5 2.83401V5.66802H22.5Z" fill="#75B1CE"/>
</svg>
